<svg xmlns="http://www.w3.org/2000/svg" viewBox="0 0 900 1280" role="img" aria-labelledby="title desc">
  <title id="title">Blade Runner style neon placeholder</title>
  <desc id="desc">A pink neon cinema facade with grid windows and glowing accents.</desc>
  <defs>
    <linearGradient id="bg" x1="0%" y1="0%" x2="100%" y2="100%">
      <stop offset="0%" stop-color="#351138"/>
      <stop offset="45%" stop-color="#8f235d"/>
      <stop offset="100%" stop-color="#120911"/>
    </linearGradient>
    <linearGradient id="glass" x1="0%" y1="0%" x2="0%" y2="100%">
      <stop offset="0%" stop-color="#ff7bb8" stop-opacity=".9"/>
      <stop offset="100%" stop-color="#602147" stop-opacity=".9"/>
    </linearGradient>
  </defs>
  <rect width="900" height="1280" fill="url(#bg)"/>
  <rect x="76" y="88" width="748" height="1104" rx="28" fill="rgba(9,7,8,.36)" stroke="#ffb0cf" stroke-opacity=".28"/>
  <rect x="132" y="158" width="636" height="930" rx="16" fill="url(#glass)" opacity=".82"/>
  <g stroke="#181216" stroke-width="14" opacity=".88">
    <line x1="132" y1="300" x2="768" y2="300"/>
    <line x1="132" y1="470" x2="768" y2="470"/>
    <line x1="132" y1="640" x2="768" y2="640"/>
    <line x1="132" y1="810" x2="768" y2="810"/>
    <line x1="132" y1="980" x2="768" y2="980"/>
    <line x1="290" y1="158" x2="290" y2="1088"/>
    <line x1="450" y1="158" x2="450" y2="1088"/>
    <line x1="610" y1="158" x2="610" y2="1088"/>
  </g>
  <rect x="166" y="194" width="568" height="82" rx="18" fill="#f7d1df" opacity=".82"/>
  <text x="450" y="248" fill="#43203a" font-family="Arial, sans-serif" font-size="44" letter-spacing="10" text-anchor="middle">CINEMA</text>
  <g fill="#ff4e98" opacity=".95">
    <rect x="206" y="375" width="108" height="288" rx="18"/>
    <rect x="354" y="412" width="122" height="216" rx="18"/>
    <rect x="544" y="356" width="124" height="322" rx="18"/>
  </g>
  <g fill="#1c1419" opacity=".78">
    <rect x="272" y="742" width="112" height="178" rx="18"/>
    <rect x="480" y="724" width="106" height="196" rx="18"/>
  </g>
  <g stroke="#ff8fbe" stroke-width="18" stroke-linecap="round" opacity=".88">
    <line x1="546" y1="502" x2="666" y2="502"/>
    <line x1="546" y1="552" x2="666" y2="552"/>
  </g>
  <g fill="#080607" opacity=".74">
    <circle cx="330" cy="960" r="34"/>
    <circle cx="520" cy="936" r="32"/>
  </g>
  <rect x="120" y="1030" width="660" height="92" rx="24" fill="#2b1730" opacity=".75"/>
</svg>
